{
  "id": "case_05_impress_purple_note_kimi_k26",
  "title": "Impress note and background: v9 completes both required edits",
  "model": "kimi_k26",
  "app": "libreoffice_impress",
  "task_id": "841b50aa-df53-47bd-a73a-22d3a9f73160",
  "instruction": "Add a note \"APP\" into the slide and give the slide a purple background color.",
  "why_selected": "Both final requirements are visible: the note text is entered in Notes view and the slide background changes to purple.",
  "variants": {
    "no_skills": {
      "caption": "No-skills: interacts with the sidebar and menus but does not complete the combined note plus purple-background requirement.",
      "score": "0",
      "steps": 17,
      "clip_file": "no_skills.mp4",
      "clip_start_sec": 135.0,
      "clip_target_duration_sec": 55.0,
      "clip_probe": {
        "bytes": 1055614,
        "duration_sec": 56.73,
        "video_stream": "Stream #0:0[0x1](und): Video: h264 (High 4:4:4 Predictive) (avc1 / 0x31637661), yuv444p(progressive), 1920x1080, 145 kb/s, 30 fps, 30 tbr, 15360 tbn (default)"
      },
      "source_recording": "evaluation_results/skills419_full_domain_kimi_k26/no_skills/pyautogui/screenshot/kimi_k26_no_skills_full/libreoffice_impress/841b50aa-df53-47bd-a73a-22d3a9f73160/recording.mp4",
      "source_probe": {
        "bytes": 4241532,
        "duration_sec": 255.27,
        "video_stream": "Stream #0:0[0x1](und): Video: h264 (High 4:4:4 Predictive) (avc1 / 0x31637661), yuv444p(progressive), 1920x1080, 130 kb/s, 30 fps, 30 tbr, 15360 tbn (default)"
      },
      "sha256": "334d065298f577cda200412cca8d9059af94f6227038e81faa95ff811ad74ae4",
      "skill_mode": "no_skills",
      "text_skill_mode": null,
      "task_skill_names": [],
      "loaded_skill_names": [],
      "consulted_skill_names": [],
      "load_skill_calls": 0,
      "skill_branch_invocations": 0
    },
    "text_only": {
      "caption": "Text-only: enters APP in the notes area, then drifts through menus and context clicks without reliably setting the purple slide background.",
      "score": "0",
      "steps": 20,
      "clip_file": "text_only.mp4",
      "clip_start_sec": 0.0,
      "clip_target_duration_sec": 60.0,
      "clip_probe": {
        "bytes": 1097564,
        "duration_sec": 60.07,
        "video_stream": "Stream #0:0[0x1](und): Video: h264 (High 4:4:4 Predictive) (avc1 / 0x31637661), yuv444p(progressive), 1920x1080, 143 kb/s, 30 fps, 30 tbr, 15360 tbn (default)"
      },
      "source_recording": "evaluation_results/skills419_full_domain_kimi_k26/text-only/pyautogui/screenshot/kimi_k26_text_branch_full/libreoffice_impress/841b50aa-df53-47bd-a73a-22d3a9f73160/recording.mp4",
      "source_probe": {
        "bytes": 8109433,
        "duration_sec": 530.53,
        "video_stream": "Stream #0:0[0x1](und): Video: h264 (High 4:4:4 Predictive) (avc1 / 0x31637661), yuv444p(progressive), 1920x1080, 119 kb/s, 30 fps, 30 tbr, 15360 tbn (default)"
      },
      "sha256": "96eb34813737a4e417382d6d33f9a691b4e119385329fbfba25a1ae695ff6a20",
      "skill_mode": "text_only",
      "text_skill_mode": "branch_planner",
      "task_skill_names": [
        "LIBREOFFICEIMPRESS_Edit_Speaker_Notes_and_Notes_Views",
        "LIBREOFFICEIMPRESS_Configure_Slide_Backgrounds_and_Fill_Effects"
      ],
      "loaded_skill_names": [],
      "consulted_skill_names": [
        "LIBREOFFICEIMPRESS_Configure_Slide_Backgrounds_and_Fill_Effects",
        "LIBREOFFICEIMPRESS_Edit_Speaker_Notes_and_Notes_Views"
      ],
      "load_skill_calls": 2,
      "skill_branch_invocations": 2
    },
    "multimodal_v9": {
      "caption": "Multimodal v9: switches to Notes view, writes APP, returns to the slide/background controls, selects purple, and verifies the final state.",
      "score": "1",
      "steps": 15,
      "clip_file": "multimodal.mp4",
      "clip_start_sec": 25.0,
      "clip_target_duration_sec": 75.0,
      "clip_probe": {
        "bytes": 1313990,
        "duration_sec": 75.07,
        "video_stream": "Stream #0:0[0x1](und): Video: h264 (High 4:4:4 Predictive) (avc1 / 0x31637661), yuv444p(progressive), 1920x1080, 137 kb/s, 30 fps, 30 tbr, 15360 tbn (default)"
      },
      "source_recording": "evaluation_results/skills419_full_domain_kimi_k26/multimodal_v9/pyautogui/screenshot/kimi_k26_multimodal_v9_full/libreoffice_impress/841b50aa-df53-47bd-a73a-22d3a9f73160/recording.mp4",
      "source_probe": {
        "bytes": 5347778,
        "duration_sec": 314.6,
        "video_stream": "Stream #0:0[0x1](und): Video: h264 (High 4:4:4 Predictive) (avc1 / 0x31637661), yuv444p(progressive), 1920x1080, 133 kb/s, 30 fps, 30 tbr, 15360 tbn (default)"
      },
      "sha256": "27ecb633e967022526dea83899920e5120796a9a75f5b84008af81c2a2686d63",
      "skill_mode": "multimodal",
      "text_skill_mode": null,
      "task_skill_names": [
        "LIBREOFFICEIMPRESS_Edit_Speaker_Notes_and_Notes_Views",
        "LIBREOFFICEIMPRESS_Configure_Slide_Backgrounds_and_Fill_Effects"
      ],
      "loaded_skill_names": [
        "LIBREOFFICEIMPRESS_Edit_Speaker_Notes_and_Notes_Views"
      ],
      "consulted_skill_names": [
        "LIBREOFFICEIMPRESS_Edit_Speaker_Notes_and_Notes_Views"
      ],
      "load_skill_calls": 1,
      "skill_branch_invocations": 1
    }
  }
}
